<?xml version="1.0" encoding="utf-8"?>
<!-- Generator: Adobe Illustrator 27.2.0, SVG Export Plug-In . SVG Version: 6.00 Build 0)  -->
<svg version="1.1" id="Capa_1" xmlns="http://www.w3.org/2000/svg" xmlns:xlink="http://www.w3.org/1999/xlink" x="0px" y="0px"
	 viewBox="0 0 1920 1080" style="enable-background:new 0 0 1920 1080;" xml:space="preserve">
<style type="text/css">
	.st0{fill:#F7F5F6;}
	.st1{fill:#FAF8F9;}
</style>
<g>
	<polygon class="st0" points="1338.21,121.31 1229.09,121.31 761.43,612.68 761.43,740.12 840.93,740.12 840.93,638.87 910.3,570.9 
		1231.42,906.51 1346,906.51 971.09,513.91 	"/>
	<polygon class="st0" points="675.97,241.41 961.03,98.38 1131.84,186.18 1094.74,241.41 958.09,169.89 828.79,241.41 	"/>
	<polyline class="st0" points="675.97,319.29 914.01,319.29 914.01,396.7 756.3,396.7 756.3,982 675.97,942.35 675.97,315.51 	"/>
	<polygon class="st1" points="804.48,787.19 804.48,865.55 913.7,921.24 1098.35,825.42 1054.27,770.67 911.25,845.96 	"/>
</g>
</svg>
